<svg width="60" height="29" viewBox="0 0 60 29" fill="none" xmlns="http://www.w3.org/2000/svg">
<g clip-path="url(#clip0)">
<path d="M4.4047 6.23002C9.0843 10.2073 14.7472 12.824 20.7745 13.767C27.1236 14.7604 34.318 14.7136 40.0234 13.3099C43.9319 12.3453 44.4872 12.1689 45.467 11.5534C43.7798 9.44421 38.2513 5.87368 38.5661 1.5437C38.6333 0.593475 39.7157 0.100368 40.462 0.672661C45.1734 4.28998 54.9748 10.2181 59.1203 13.9254C59.5553 14.3141 60.0293 14.7892 60.001 15.3795C59.9762 15.9518 59.4917 16.3729 59.046 16.722C53.3972 21.1168 47.4655 25.1373 41.3074 28.751C40.462 29.2477 39.3372 28.9813 38.8774 28.1031C38.4741 27.34 38.9057 26.7498 39.3124 26.2243C41.2366 23.7371 43.1608 21.25 45.085 18.7593C35.1952 23.0101 23.6395 22.8265 13.7497 18.6477C8.20002 16.3045 3.58763 12.0825 0.881742 6.62954C-0.568473 3.69969 -0.738254 1.86044 4.4047 6.23002Z" fill="#FBC8B8"/>
</g>
<defs>
<clipPath id="clip0">
<rect width="60" height="28.5714" fill="white" transform="matrix(1 0 0 -1 0 29)"/>
</clipPath>
</defs>
</svg>
