<svg width="60" height="29" viewBox="0 0 60 29" fill="none" xmlns="http://www.w3.org/2000/svg">
<g clip-path="url(#clip0)">
<path d="M4.4047 22.5021C9.0843 18.5717 14.7472 15.9857 20.7745 15.0538C27.1236 14.0721 34.318 14.1183 40.0234 15.5055C43.9319 16.4588 44.4872 16.6331 45.467 17.2413C43.7798 19.3257 38.2513 22.8543 38.5661 27.1333C38.6333 28.0723 39.7157 28.5596 40.462 27.9941C45.1734 24.4193 54.9748 18.561 59.1203 14.8973C59.5553 14.5131 60.0293 14.0436 60.001 13.4603C59.9762 12.8947 59.4917 12.4785 59.046 12.1335C53.3972 7.79045 47.4655 3.8173 41.3074 0.246098C40.462 -0.244765 39.3372 0.0184512 38.8774 0.886354C38.4742 1.64043 38.9057 2.22378 39.3124 2.7431C41.2366 5.20097 43.1608 7.65884 45.085 10.1203C35.1952 5.91948 23.6395 6.10089 13.7498 10.2305C8.20002 12.5461 3.58763 16.7185 0.881742 22.1073C-0.568473 25.0027 -0.738254 26.8203 4.4047 22.5021Z" fill="#FBC8B8"/>
</g>
<defs>
<clipPath id="clip0">
<rect width="60" height="28.2353" fill="white"/>
</clipPath>
</defs>
</svg>
