<svg width="98" height="89" viewBox="0 0 98 89" fill="none" xmlns="http://www.w3.org/2000/svg">
<g clip-path="url(#clip0)">
<path d="M42.4151 30.4612C45.1996 26.795 49.3538 0.663814 56.8194 7.80011C61.681 12.4319 64.5859 25.407 68.7552 30.3255C73.8426 36.3151 99.3548 30.25 97.9249 39.8455C96.9315 46.499 82.6176 50.6933 78.8697 56.0191C71.6601 66.2483 83.927 73.2187 83.1594 83.2065C82.3466 93.677 66.2717 83.1612 61.38 80.2644C57.3462 77.8806 54.9078 75.4968 50.2419 76.7642C42.1442 78.9518 37.9749 87.8986 29.3956 88.9698C20.726 90.0561 29.6214 71.2422 30.8406 68.3605C31.8791 65.9164 36.2741 59.3987 35.6269 56.683C34.4529 51.7494 24.5792 50.2105 20.5002 48.8979C13.5916 46.6952 9.48255 39.2119 17.3244 37.9445C26.5509 36.4358 37.8846 36.4207 42.4151 30.4612Z" fill="#F7BC28"/>
<path d="M48.3304 39.1968C49.8657 37.1751 52.1535 22.8271 56.2475 26.7498C58.9116 29.2995 60.5221 36.4208 62.8099 39.1214C65.6095 42.4104 79.6224 39.0761 78.8397 44.3567C78.2979 48.0078 70.426 50.3162 68.3639 53.2431C64.4054 58.8556 71.1485 62.6877 70.727 68.1795C70.2755 73.9278 61.4553 68.1493 58.7611 66.5652C56.5485 65.2526 55.209 63.94 52.6352 64.634C48.195 65.841 45.8921 70.7595 41.181 71.3479C36.4247 71.9363 41.3014 61.6165 41.9787 60.0173C42.5507 58.6745 44.9589 55.0988 44.5977 53.6052C43.9505 50.8895 38.5169 50.0446 36.2893 49.3355C32.4963 48.1285 30.2386 44.0097 34.5433 43.3156C39.6157 42.4708 45.8319 42.4708 48.3304 39.1968Z" fill="#E48929"/>
<path d="M83.069 9.71622C83.2195 6.63841 83.8667 3.57569 84.9956 0.694017C85.131 0.347009 85.402 -0.0754357 85.7782 8.4471e-07C86.0492 0.0603501 86.1846 0.362096 86.2599 0.61858C86.8921 2.50449 87.2984 4.45076 87.464 6.44228C87.4941 6.71385 87.5242 7.0156 87.7199 7.19664C88.036 7.4833 88.5477 7.30226 88.924 7.10612C90.7452 6.15562 92.5815 5.19003 94.4027 4.23953C94.493 6.59315 91.844 7.99627 90.67 10.0331C90.4894 10.3499 90.3388 10.6969 90.4141 11.059C90.4743 11.3909 90.7302 11.6323 90.9559 11.8737C92.6116 13.5635 94.2673 15.2533 95.938 16.9581C93.4394 17.2297 90.8355 16.4753 88.8638 14.9063C88.8638 17.8483 88.5477 20.8054 87.9005 23.6871C86.5007 21.4994 85.4622 19.0704 84.8752 16.5508C83.4152 17.6069 81.9401 18.6479 80.4801 19.704C81.2327 18.1199 81.9853 16.5357 82.7379 14.9666C82.8282 14.7554 82.9335 14.5442 82.9185 14.3179C82.8884 13.9558 82.5723 13.6993 82.2713 13.488C80.6457 12.4169 77.3795 11.587 76.9731 9.44465C78.6439 8.75064 81.2779 9.3843 83.069 9.71622Z" fill="#FBC8B8"/>
<path d="M5.22285 68.3606C5.28306 66.0221 5.77976 63.6835 6.68284 61.526C6.77315 61.2997 6.93872 61.0282 7.17954 61.0583C7.40531 61.0734 7.51067 61.3299 7.58593 61.5411C8.05253 62.9744 8.36861 64.453 8.51912 65.9466C8.54922 66.1729 8.57933 66.4143 8.72984 66.5652C9.04592 66.8519 9.52757 66.5803 9.8587 66.3238C11.0327 65.4336 12.3572 64.7698 13.757 64.3474C13.5614 66.1428 11.6197 67.1838 10.7768 68.783C10.6865 68.949 10.6113 69.13 10.6414 69.3262C10.6715 69.5374 10.837 69.7184 10.9876 69.8693C12.2669 71.1367 13.5463 72.4191 14.8106 73.7015C12.9744 74.2145 11.0929 73.1734 9.46736 72.1777C9.51252 74.4106 9.3018 76.6435 8.8051 78.8161C7.7515 77.1263 6.98387 75.2706 6.54738 73.3243C5.47873 74.1692 4.41008 75.0292 3.34142 75.8741C3.50699 74.7425 4.00369 73.6713 4.74121 72.8113C4.96698 72.5549 5.23791 72.2682 5.2078 71.9212C5.1777 71.5742 4.86162 71.3177 4.57564 71.1216C3.05544 70.0956 1.5202 69.0546 0 68.0136C0.31608 67.6213 0.948241 67.5308 1.36968 67.8174L5.22285 68.3606Z" fill="#FBC8B8"/>
</g>
<defs>
<clipPath id="clip0">
<rect width="98" height="89" fill="white"/>
</clipPath>
</defs>
</svg>
