<svg width="79" height="95" viewBox="0 0 79 95" fill="none" xmlns="http://www.w3.org/2000/svg">
<g clip-path="url(#clip0)">
<path d="M5.86874 17.6218C2.48883 19.5629 0.335389 23.1144 0.178515 27.0326C-0.35628 40.2826 -0.862553 68.2851 17.5558 82.4984L33.343 93.0883C36.9439 95.5039 41.6002 95.6262 45.3367 93.419C50.2211 90.5361 56.7599 86.1937 60.5391 81.686C60.7103 81.4775 60.8885 81.2834 61.0739 81.0893C63.4698 78.6377 81.5102 59.0252 78.7079 26.6875C78.387 22.985 76.2978 19.6635 73.1032 17.8015L45.1513 1.53202C41.6715 -0.495377 37.386 -0.509756 33.8992 1.50326L5.86874 17.6218Z" fill="#F7BC28"/>
<path d="M14.5535 25.0333C12.0507 26.4712 10.4534 29.1096 10.3322 32.0141C9.93287 41.842 9.56208 62.6048 23.2172 73.1516L34.9257 81.0095C37.5996 82.7997 41.0508 82.8931 43.8175 81.254C47.4399 79.1187 52.2887 75.8979 55.091 72.5548C55.2194 72.4039 55.3477 72.2529 55.4903 72.1163C57.2658 70.2974 70.593 55.6096 68.5679 31.7697C68.4395 30.224 64.6318 25.6012 63.334 24.5516L43.6892 13.099C41.1079 11.5964 37.9348 11.5892 35.3464 13.0774L14.5535 25.0333Z" fill="#E48929"/>
<path d="M39.4966 11.9631V47.5H67.7409C67.7409 47.5 69.7518 37.5859 68.5752 31.7697C68.5752 31.7697 68.2472 27.7724 63.3413 24.5516L43.6894 13.099C43.6894 13.099 41.6928 11.8912 39.4966 11.9631Z" fill="#FBFAF7"/>
<path d="M39.4965 47.5L39.4894 82.4114C39.4894 82.4114 37.2219 82.5409 34.3767 80.6285L24.9643 74.3162C24.9643 74.3162 16.9852 69.521 14.3897 61.5839C14.3897 61.5839 11.1167 54.2867 10.6675 46.8458L39.4965 47.5Z" fill="#FBFAF7"/>
</g>
<defs>
<clipPath id="clip0">
<rect width="79" height="95" fill="white"/>
</clipPath>
</defs>
</svg>
