<?xml version="1.0" encoding="utf-8"?>
<!-- Generator: Adobe Illustrator 24.3.0, SVG Export Plug-In . SVG Version: 6.00 Build 0)  -->
<svg version="1.1" id="Layer_1" xmlns="http://www.w3.org/2000/svg" xmlns:xlink="http://www.w3.org/1999/xlink" x="0px" y="0px"
	 viewBox="0 0 100 91.1" style="enable-background:new 0 0 100 91.1;" xml:space="preserve">
<style type="text/css">
	.st0{clip-path:url(#SVGID_2_);}
	.st1{fill:#F7BC28;}
	.st2{fill:#FBFAF7;}
	.st3{fill:#E48929;}
</style>
<g>
	<defs>
		
			<rect id="SVGID_1_" x="10.6" y="0.4" transform="matrix(0.9711 -0.2386 0.2386 0.9711 -10.3355 13.0654)" width="76.5" height="97.6"/>
	</defs>
	<clipPath id="SVGID_2_">
		<use xlink:href="#SVGID_1_"  style="overflow:visible;"/>
	</clipPath>
	<g class="st0">
		<path class="st1" d="M32,3.7c-7.1,3.1-13.4,8.1-17.2,14.2c-9.5,15.3-9.4,38.5,6.7,49.4c19.5,13.2,54,6.5,56.3-20.5
			C80.1,19.6,61.3-8.9,32,3.7z"/>
		<path class="st2" d="M35.3,11.6c-5.3,2.3-9.9,6-12.7,10.5c-7.1,11.4-7,28.6,5,36.7c14.5,9.8,40.1,4.8,41.8-15.2
			C71,23.5,57.1,2.3,35.3,11.6z"/>
		<path class="st1" d="M59.4,64c4.9,6.2,7.9,9.2,12.5,13c3.3,2.7,6.6,5.4,9.8,8.1c2.7,2.2,5.9,4.6,9.3,4c3.6-0.6,6.1-4.8,4.9-8.3
			c-0.4-1.2-1.2-2.3-2.1-3.3c-6.2-7.9-13.4-15-21.4-21.2L59.4,64z"/>
		<path class="st3" d="M77,81.1l11.5-10.1l2.2,2.5l-11.2,9.6L77,81.1z"/>
		<path class="st3" d="M81,84.5l10.9-9.4l1.9,2.4l-10.5,8.9L81,84.5z"/>
	</g>
</g>
</svg>
