<svg width="308" height="194" viewBox="0 0 308 194" fill="none" xmlns="http://www.w3.org/2000/svg">
<path d="M92.6207 138.6C92.6207 130.184 81.9967 133.32 81.9967 126.92C81.9967 125.096 82.9887 123.88 84.5567 123.88C87.5327 123.88 86.8607 129.16 89.8687 129.16C91.2447 129.16 92.0447 128.232 92.0447 126.856C92.0447 124.808 89.6127 122.728 85.4847 122.376V120.488C85.4847 120.104 85.2607 119.848 84.9407 119.848H84.1407C83.8207 119.848 83.5967 120.104 83.5967 120.488V122.376C79.5647 122.664 76.8127 125.256 76.8127 128.744C76.8127 136.776 87.5647 134.76 87.5647 140.232C87.5647 142.28 86.3487 143.528 84.7167 143.528C81.7727 143.528 81.9007 138.12 78.5727 138.12C77.4847 138.12 76.4927 138.888 76.4927 140.456C76.4927 142.376 78.9567 144.84 83.3727 145.192V148.232C83.3727 148.648 83.5647 148.904 83.8847 148.904H84.7167C85.0367 148.904 85.2287 148.648 85.2287 148.232V145.192C89.7727 144.904 92.6207 142.184 92.6207 138.6Z" fill="#163A24"/>
<path d="M102.937 121.96C98.2649 121.96 94.8089 124.936 94.8089 129.256C94.8089 134.504 98.3929 136.744 102.201 136.744C104.249 136.744 105.817 136.104 106.809 134.952C106.649 139.88 105.561 143.4 103.001 143.4C99.9929 143.4 100.825 137.96 97.4969 137.96C96.2169 137.96 95.1609 138.792 95.1609 140.232C95.1609 142.824 98.3289 145.32 102.681 145.32C108.857 145.32 111.769 140.264 111.769 133.192C111.769 126.472 108.185 121.96 102.937 121.96ZM103.545 134.824C100.953 134.824 99.4489 130.92 99.4489 127.656C99.4489 125.256 100.569 123.88 102.265 123.88C104.985 123.88 106.393 127.432 106.745 131.432C106.681 133.448 105.529 134.824 103.545 134.824Z" fill="#163A24"/>
<path d="M123.658 130.216C121.802 130.216 120.138 130.856 118.986 132.008C119.274 126.6 120.906 123.88 123.082 123.88C125.994 123.88 125.098 129.32 128.618 129.32C129.866 129.32 130.922 128.648 130.922 127.048C130.922 124.648 128.266 121.96 123.402 121.96C117.226 121.96 114.058 127.56 114.058 134.088C114.058 140.808 117.866 145.32 122.89 145.32C127.402 145.32 131.05 142.376 131.05 137.992C131.05 132.648 127.466 130.216 123.658 130.216ZM123.466 143.4C120.906 143.4 119.37 139.976 119.018 135.528C119.114 133.672 120.394 132.104 122.314 132.104C124.906 132.104 126.378 136.072 126.378 139.528C126.378 141.96 125.226 143.4 123.466 143.4Z" fill="#163A24"/>
<path d="M141.656 121.96C136.984 121.96 133.528 124.936 133.528 129.256C133.528 134.504 137.112 136.744 140.92 136.744C142.968 136.744 144.536 136.104 145.528 134.952C145.368 139.88 144.28 143.4 141.72 143.4C138.712 143.4 139.544 137.96 136.216 137.96C134.936 137.96 133.88 138.792 133.88 140.232C133.88 142.824 137.048 145.32 141.4 145.32C147.576 145.32 150.488 140.264 150.488 133.192C150.488 126.472 146.904 121.96 141.656 121.96ZM142.264 134.824C139.672 134.824 138.168 130.92 138.168 127.656C138.168 125.256 139.288 123.88 140.984 123.88C143.704 123.88 145.112 127.432 145.464 131.432C145.4 133.448 144.248 134.824 142.264 134.824Z" fill="#163A24"/>
<path d="M170.059 145.32C175.275 145.32 178.859 142.12 178.859 136.392V125.352C178.859 124.008 180.235 123.72 180.235 122.92V122.792C180.235 122.472 179.947 122.28 179.499 122.28H175.851C175.435 122.28 175.115 122.472 175.115 122.792V122.92C175.115 123.72 176.395 124.008 176.395 125.352V136.328C176.395 141.512 173.515 143.24 171.115 143.24C167.563 143.24 165.419 140.84 165.419 136.328V125.352C165.419 124.008 166.795 123.72 166.795 122.92V122.792C166.795 122.472 166.507 122.28 166.059 122.28H160.043C159.595 122.28 159.307 122.472 159.307 122.792V122.92C159.307 123.72 160.555 124.008 160.555 125.352V136.328C160.555 142.12 164.459 145.32 170.059 145.32Z" fill="#163A24"/>
<path d="M191.65 145.32C196.29 145.32 200.29 142.952 200.29 138.792C200.29 129.576 187.362 133.992 187.362 127.112C187.362 125.288 188.546 123.816 190.978 123.816C195.65 123.816 194.466 129.512 197.922 129.512C199.298 129.512 199.97 128.744 199.97 127.528C200.002 124.872 196.45 121.992 191.074 121.992C185.794 121.992 182.594 124.808 182.594 128.648C182.626 138.12 195.554 133.448 195.554 140.264C195.554 142.216 194.082 143.496 191.842 143.496C186.434 143.496 187.298 137.672 184.098 137.608C182.786 137.608 182.178 138.44 182.178 139.56C182.178 142.12 185.57 145.32 191.65 145.32Z" fill="#163A24"/>
<path d="M203.459 145H212.259C219.555 145 224.579 140.52 224.579 133.672C224.579 127.112 219.235 122.28 210.755 122.28H203.459C203.011 122.28 202.723 122.472 202.723 122.792V122.92C202.723 123.72 203.971 124.008 203.971 125.352V141.928C203.971 143.272 202.723 143.56 202.723 144.36V144.456C202.723 144.808 203.011 145 203.459 145ZM211.107 143.048C209.635 143.048 208.739 142.056 208.739 140.296V125.576C208.739 124.552 209.315 124.232 210.019 124.232H210.627C215.715 124.232 219.555 129.416 219.555 135.72C219.555 140.424 216.643 143.048 212.739 143.048H211.107Z" fill="#163A24"/>
<path d="M52.3215 55H50.5215V42.3H46.0615V40.72H56.7615V42.3H52.3215V55Z" fill="#163A24"/>
<path d="M61.1332 44.1C62.4399 44.1 63.4066 44.3867 64.0332 44.96C64.6599 45.5333 64.9732 46.4467 64.9732 47.7V55H63.6932L63.3532 53.48H63.2732C62.8066 54.0667 62.3132 54.5 61.7932 54.78C61.2866 55.06 60.5799 55.2 59.6732 55.2C58.6999 55.2 57.8932 54.9467 57.2532 54.44C56.6132 53.92 56.2932 53.1133 56.2932 52.02C56.2932 50.9533 56.7132 50.1333 57.5532 49.56C58.3932 48.9733 59.6866 48.6533 61.4332 48.6L63.2532 48.54V47.9C63.2532 47.0067 63.0599 46.3867 62.6732 46.04C62.2866 45.6933 61.7399 45.52 61.0332 45.52C60.4732 45.52 59.9399 45.6067 59.4332 45.78C58.9266 45.94 58.4532 46.1267 58.0132 46.34L57.4732 45.02C57.9399 44.7667 58.4932 44.5533 59.1332 44.38C59.7732 44.1933 60.4399 44.1 61.1332 44.1ZM61.6532 49.82C60.3199 49.8733 59.3932 50.0867 58.8732 50.46C58.3666 50.8333 58.1132 51.36 58.1132 52.04C58.1132 52.64 58.2932 53.08 58.6532 53.36C59.0266 53.64 59.4999 53.78 60.0732 53.78C60.9799 53.78 61.7332 53.5333 62.3332 53.04C62.9332 52.5333 63.2332 51.76 63.2332 50.72V49.76L61.6532 49.82Z" fill="#163A24"/>
<path d="M70.0242 47.74C70.0242 47.9533 70.0108 48.2333 69.9842 48.58C69.9708 48.9267 69.9575 49.2267 69.9442 49.48H70.0242C70.1042 49.3733 70.2242 49.22 70.3842 49.02C70.5442 48.82 70.7042 48.62 70.8642 48.42C71.0375 48.2067 71.1842 48.0333 71.3042 47.9L74.7242 44.28H76.7842L72.4442 48.86L77.0842 55H74.9642L71.2442 50L70.0242 51.06V55H68.2842V39.8H70.0242V47.74Z" fill="#163A24"/>
<path d="M83.1078 44.08C84.0278 44.08 84.8144 44.28 85.4678 44.68C86.1344 45.08 86.6411 45.6467 86.9878 46.38C87.3478 47.1 87.5278 47.9467 87.5278 48.92V49.98H80.1878C80.2144 51.1933 80.5211 52.12 81.1078 52.76C81.7078 53.3867 82.5411 53.7 83.6078 53.7C84.2878 53.7 84.8878 53.64 85.4078 53.52C85.9411 53.3867 86.4878 53.2 87.0478 52.96V54.5C86.5011 54.74 85.9611 54.9133 85.4278 55.02C84.8944 55.14 84.2611 55.2 83.5278 55.2C82.5144 55.2 81.6144 54.9933 80.8278 54.58C80.0544 54.1667 79.4478 53.5533 79.0078 52.74C78.5811 51.9133 78.3678 50.9067 78.3678 49.72C78.3678 48.5467 78.5611 47.54 78.9478 46.7C79.3478 45.86 79.9011 45.2133 80.6078 44.76C81.3278 44.3067 82.1611 44.08 83.1078 44.08ZM83.0878 45.52C82.2478 45.52 81.5811 45.7933 81.0878 46.34C80.6078 46.8733 80.3211 47.62 80.2278 48.58H85.6878C85.6744 47.6733 85.4611 46.94 85.0478 46.38C84.6344 45.8067 83.9811 45.52 83.0878 45.52Z" fill="#163A24"/>
<path d="M99.5122 44.1C100.819 44.1 101.785 44.3867 102.412 44.96C103.039 45.5333 103.352 46.4467 103.352 47.7V55H102.072L101.732 53.48H101.652C101.185 54.0667 100.692 54.5 100.172 54.78C99.6655 55.06 98.9588 55.2 98.0522 55.2C97.0788 55.2 96.2721 54.9467 95.6321 54.44C94.9921 53.92 94.6721 53.1133 94.6721 52.02C94.6721 50.9533 95.0922 50.1333 95.9322 49.56C96.7722 48.9733 98.0655 48.6533 99.8121 48.6L101.632 48.54V47.9C101.632 47.0067 101.439 46.3867 101.052 46.04C100.665 45.6933 100.119 45.52 99.4122 45.52C98.8522 45.52 98.3188 45.6067 97.8121 45.78C97.3055 45.94 96.8322 46.1267 96.3922 46.34L95.8521 45.02C96.3188 44.7667 96.8722 44.5533 97.5122 44.38C98.1522 44.1933 98.8188 44.1 99.5122 44.1ZM100.032 49.82C98.6988 49.8733 97.7722 50.0867 97.2522 50.46C96.7455 50.8333 96.4921 51.36 96.4921 52.04C96.4921 52.64 96.6722 53.08 97.0322 53.36C97.4055 53.64 97.8788 53.78 98.4521 53.78C99.3588 53.78 100.112 53.5333 100.712 53.04C101.312 52.5333 101.612 51.76 101.612 50.72V49.76L100.032 49.82Z" fill="#163A24"/>
<path d="M110.463 55.2C109.13 55.2 108.063 54.74 107.263 53.82C106.463 52.8867 106.063 51.5 106.063 49.66C106.063 47.82 106.463 46.4333 107.263 45.5C108.076 44.5533 109.15 44.08 110.483 44.08C111.31 44.08 111.983 44.2333 112.503 44.54C113.036 44.8467 113.47 45.22 113.803 45.66H113.923C113.91 45.4867 113.883 45.2333 113.843 44.9C113.816 44.5533 113.803 44.28 113.803 44.08V39.8H115.563V55H114.143L113.883 53.56H113.803C113.483 54.0133 113.056 54.4 112.523 54.72C111.99 55.04 111.303 55.2 110.463 55.2ZM110.743 53.74C111.876 53.74 112.67 53.4333 113.123 52.82C113.59 52.1933 113.823 51.2533 113.823 50V49.68C113.823 48.3467 113.603 47.3267 113.163 46.62C112.723 45.9 111.91 45.54 110.723 45.54C109.776 45.54 109.063 45.92 108.583 46.68C108.116 47.4267 107.883 48.4333 107.883 49.7C107.883 50.98 108.116 51.9733 108.583 52.68C109.063 53.3867 109.783 53.74 110.743 53.74Z" fill="#163A24"/>
<path d="M121.328 55L117.268 44.28H119.148L121.428 50.6C121.534 50.8933 121.648 51.22 121.768 51.58C121.888 51.94 121.994 52.2867 122.088 52.62C122.181 52.94 122.248 53.2133 122.288 53.44H122.368C122.421 53.2133 122.494 52.9333 122.588 52.6C122.694 52.2667 122.808 51.92 122.928 51.56C123.061 51.2 123.174 50.88 123.268 50.6L125.548 44.28H127.428L123.348 55H121.328Z" fill="#163A24"/>
<path d="M133.184 44.1C134.491 44.1 135.457 44.3867 136.084 44.96C136.711 45.5333 137.024 46.4467 137.024 47.7V55H135.744L135.404 53.48H135.324C134.857 54.0667 134.364 54.5 133.844 54.78C133.337 55.06 132.631 55.2 131.724 55.2C130.751 55.2 129.944 54.9467 129.304 54.44C128.664 53.92 128.344 53.1133 128.344 52.02C128.344 50.9533 128.764 50.1333 129.604 49.56C130.444 48.9733 131.737 48.6533 133.484 48.6L135.304 48.54V47.9C135.304 47.0067 135.111 46.3867 134.724 46.04C134.337 45.6933 133.791 45.52 133.084 45.52C132.524 45.52 131.991 45.6067 131.484 45.78C130.977 45.94 130.504 46.1267 130.064 46.34L129.524 45.02C129.991 44.7667 130.544 44.5533 131.184 44.38C131.824 44.1933 132.491 44.1 133.184 44.1ZM133.704 49.82C132.371 49.8733 131.444 50.0867 130.924 50.46C130.417 50.8333 130.164 51.36 130.164 52.04C130.164 52.64 130.344 53.08 130.704 53.36C131.077 53.64 131.551 53.78 132.124 53.78C133.031 53.78 133.784 53.5333 134.384 53.04C134.984 52.5333 135.284 51.76 135.284 50.72V49.76L133.704 49.82Z" fill="#163A24"/>
<path d="M145.495 44.08C146.775 44.08 147.742 44.3933 148.395 45.02C149.048 45.6333 149.375 46.6333 149.375 48.02V55H147.635V48.14C147.635 46.42 146.835 45.56 145.235 45.56C144.048 45.56 143.228 45.8933 142.775 46.56C142.322 47.2267 142.095 48.1867 142.095 49.44V55H140.335V44.28H141.755L142.015 45.74H142.115C142.462 45.18 142.942 44.7667 143.555 44.5C144.168 44.22 144.815 44.08 145.495 44.08Z" fill="#163A24"/>
<path d="M156.278 53.76C156.545 53.76 156.818 53.74 157.098 53.7C157.378 53.6467 157.605 53.5933 157.778 53.54V54.88C157.592 54.9733 157.325 55.0467 156.978 55.1C156.632 55.1667 156.298 55.2 155.978 55.2C155.418 55.2 154.898 55.1067 154.418 54.92C153.952 54.72 153.572 54.38 153.278 53.9C152.985 53.42 152.838 52.7467 152.838 51.88V45.64H151.318V44.8L152.858 44.1L153.558 41.82H154.598V44.28H157.698V45.64H154.598V51.84C154.598 52.4933 154.752 52.98 155.058 53.3C155.378 53.6067 155.785 53.76 156.278 53.76Z" fill="#163A24"/>
<path d="M163.985 44.1C165.291 44.1 166.258 44.3867 166.885 44.96C167.511 45.5333 167.825 46.4467 167.825 47.7V55H166.545L166.205 53.48H166.125C165.658 54.0667 165.165 54.5 164.645 54.78C164.138 55.06 163.431 55.2 162.525 55.2C161.551 55.2 160.745 54.9467 160.105 54.44C159.465 53.92 159.145 53.1133 159.145 52.02C159.145 50.9533 159.565 50.1333 160.405 49.56C161.245 48.9733 162.538 48.6533 164.285 48.6L166.105 48.54V47.9C166.105 47.0067 165.911 46.3867 165.525 46.04C165.138 45.6933 164.591 45.52 163.885 45.52C163.325 45.52 162.791 45.6067 162.285 45.78C161.778 45.94 161.305 46.1267 160.865 46.34L160.325 45.02C160.791 44.7667 161.345 44.5533 161.985 44.38C162.625 44.1933 163.291 44.1 163.985 44.1ZM164.505 49.82C163.171 49.8733 162.245 50.0867 161.725 50.46C161.218 50.8333 160.965 51.36 160.965 52.04C160.965 52.64 161.145 53.08 161.505 53.36C161.878 53.64 162.351 53.78 162.925 53.78C163.831 53.78 164.585 53.5333 165.185 53.04C165.785 52.5333 166.085 51.76 166.085 50.72V49.76L164.505 49.82Z" fill="#163A24"/>
<path d="M174.936 44.08C175.642 44.08 176.276 44.2133 176.836 44.48C177.409 44.7467 177.896 45.1533 178.296 45.7H178.396L178.636 44.28H180.036V55.18C180.036 56.7133 179.642 57.8667 178.856 58.64C178.082 59.4133 176.876 59.8 175.236 59.8C173.662 59.8 172.376 59.5733 171.376 59.12V57.5C172.429 58.06 173.749 58.34 175.336 58.34C176.256 58.34 176.976 58.0667 177.496 57.52C178.029 56.9867 178.296 56.2533 178.296 55.32V54.9C178.296 54.74 178.302 54.5133 178.316 54.22C178.329 53.9133 178.342 53.7 178.356 53.58H178.276C177.556 54.66 176.449 55.2 174.956 55.2C173.569 55.2 172.482 54.7133 171.696 53.74C170.922 52.7667 170.536 51.4067 170.536 49.66C170.536 47.9533 170.922 46.6 171.696 45.6C172.482 44.5867 173.562 44.08 174.936 44.08ZM175.176 45.56C174.282 45.56 173.589 45.92 173.096 46.64C172.602 47.3467 172.356 48.36 172.356 49.68C172.356 51 172.596 52.0133 173.076 52.72C173.569 53.4133 174.282 53.76 175.216 53.76C176.296 53.76 177.082 53.4733 177.576 52.9C178.069 52.3133 178.316 51.3733 178.316 50.08V49.66C178.316 48.1933 178.062 47.1467 177.556 46.52C177.049 45.88 176.256 45.56 175.176 45.56Z" fill="#163A24"/>
<path d="M187.58 44.08C188.5 44.08 189.287 44.28 189.94 44.68C190.607 45.08 191.114 45.6467 191.46 46.38C191.82 47.1 192 47.9467 192 48.92V49.98H184.66C184.687 51.1933 184.994 52.12 185.58 52.76C186.18 53.3867 187.014 53.7 188.08 53.7C188.76 53.7 189.36 53.64 189.88 53.52C190.414 53.3867 190.96 53.2 191.52 52.96V54.5C190.974 54.74 190.434 54.9133 189.9 55.02C189.367 55.14 188.734 55.2 188 55.2C186.987 55.2 186.087 54.9933 185.3 54.58C184.527 54.1667 183.92 53.5533 183.48 52.74C183.054 51.9133 182.84 50.9067 182.84 49.72C182.84 48.5467 183.034 47.54 183.42 46.7C183.82 45.86 184.374 45.2133 185.08 44.76C185.8 44.3067 186.634 44.08 187.58 44.08ZM187.56 45.52C186.72 45.52 186.054 45.7933 185.56 46.34C185.08 46.8733 184.794 47.62 184.7 48.58H190.16C190.147 47.6733 189.934 46.94 189.52 46.38C189.107 45.8067 188.454 45.52 187.56 45.52Z" fill="#163A24"/>
<path d="M209.245 49.62C209.245 51.3933 208.791 52.7667 207.885 53.74C206.991 54.7133 205.778 55.2 204.245 55.2C203.298 55.2 202.451 54.9867 201.705 54.56C200.971 54.12 200.391 53.4867 199.965 52.66C199.538 51.82 199.325 50.8067 199.325 49.62C199.325 47.8467 199.771 46.48 200.665 45.52C201.558 44.56 202.771 44.08 204.305 44.08C205.278 44.08 206.131 44.3 206.865 44.74C207.611 45.1667 208.191 45.7933 208.605 46.62C209.031 47.4333 209.245 48.4333 209.245 49.62ZM201.145 49.62C201.145 50.8867 201.391 51.8933 201.885 52.64C202.391 53.3733 203.191 53.74 204.285 53.74C205.365 53.74 206.158 53.3733 206.665 52.64C207.171 51.8933 207.425 50.8867 207.425 49.62C207.425 48.3533 207.171 47.36 206.665 46.64C206.158 45.92 205.358 45.56 204.265 45.56C203.171 45.56 202.378 45.92 201.885 46.64C201.391 47.36 201.145 48.3533 201.145 49.62Z" fill="#163A24"/>
<path d="M216.974 45.64H214.274V55H212.514V45.64H210.634V44.82L212.514 44.22V43.6C212.514 42.2133 212.821 41.22 213.434 40.62C214.048 40.0067 214.901 39.7 215.994 39.7C216.421 39.7 216.808 39.74 217.154 39.82C217.514 39.8867 217.821 39.9667 218.074 40.06L217.614 41.44C217.401 41.3733 217.154 41.3067 216.874 41.24C216.594 41.1733 216.308 41.14 216.014 41.14C215.428 41.14 214.988 41.34 214.694 41.74C214.414 42.1267 214.274 42.74 214.274 43.58V44.28H216.974V45.64Z" fill="#163A24"/>
<path d="M233.424 49.62C233.424 51.3933 232.971 52.7667 232.064 53.74C231.171 54.7133 229.958 55.2 228.424 55.2C227.478 55.2 226.631 54.9867 225.884 54.56C225.151 54.12 224.571 53.4867 224.145 52.66C223.718 51.82 223.505 50.8067 223.505 49.62C223.505 47.8467 223.951 46.48 224.844 45.52C225.738 44.56 226.951 44.08 228.484 44.08C229.458 44.08 230.311 44.3 231.044 44.74C231.791 45.1667 232.371 45.7933 232.785 46.62C233.211 47.4333 233.424 48.4333 233.424 49.62ZM225.324 49.62C225.324 50.8867 225.571 51.8933 226.064 52.64C226.571 53.3733 227.371 53.74 228.464 53.74C229.544 53.74 230.338 53.3733 230.844 52.64C231.351 51.8933 231.604 50.8867 231.604 49.62C231.604 48.3533 231.351 47.36 230.844 46.64C230.338 45.92 229.538 45.56 228.444 45.56C227.351 45.56 226.558 45.92 226.064 46.64C225.571 47.36 225.324 48.3533 225.324 49.62Z" fill="#163A24"/>
<path d="M245.174 44.28V55H243.734L243.474 53.58H243.394C243.047 54.14 242.567 54.5533 241.954 54.82C241.341 55.0733 240.687 55.2 239.994 55.2C238.701 55.2 237.727 54.8933 237.074 54.28C236.421 53.6533 236.094 52.66 236.094 51.3V44.28H237.874V51.18C237.874 52.8867 238.667 53.74 240.254 53.74C241.441 53.74 242.261 53.4067 242.714 52.74C243.181 52.0733 243.414 51.1133 243.414 49.86V44.28H245.174Z" fill="#163A24"/>
<path d="M253.577 44.08C253.777 44.08 253.99 44.0933 254.217 44.12C254.457 44.1333 254.664 44.16 254.837 44.2L254.617 45.82C254.444 45.78 254.25 45.7467 254.037 45.72C253.837 45.6933 253.644 45.68 253.457 45.68C252.91 45.68 252.397 45.8333 251.917 46.14C251.437 46.4333 251.05 46.8533 250.757 47.4C250.477 47.9333 250.337 48.56 250.337 49.28V55H248.577V44.28H250.017L250.217 46.24H250.297C250.644 45.6533 251.09 45.1467 251.637 44.72C252.184 44.2933 252.83 44.08 253.577 44.08Z" fill="#163A24"/>
<path d="M43.2571 74.08C44.4704 74.08 45.3771 74.3933 45.9771 75.02C46.5771 75.6333 46.8771 76.6333 46.8771 78.02V85H45.1371V78.1C45.1371 76.4067 44.4104 75.56 42.9571 75.56C41.9171 75.56 41.1704 75.86 40.7171 76.46C40.2771 77.06 40.0571 77.9334 40.0571 79.08V85H38.3171V78.1C38.3171 76.4067 37.5837 75.56 36.1171 75.56C35.0371 75.56 34.2904 75.8933 33.8771 76.56C33.4637 77.2267 33.2571 78.1867 33.2571 79.44V85H31.4971V74.28H32.9171L33.1771 75.74H33.2771C33.6104 75.18 34.0571 74.7667 34.6171 74.5C35.1904 74.22 35.7971 74.08 36.4371 74.08C38.1171 74.08 39.2104 74.68 39.7171 75.88H39.8171C40.1771 75.2667 40.6637 74.8133 41.2771 74.52C41.9037 74.2267 42.5637 74.08 43.2571 74.08Z" fill="#163A24"/>
<path d="M59.5085 79.62C59.5085 81.3933 59.0551 82.7667 58.1485 83.74C57.2551 84.7133 56.0418 85.2 54.5085 85.2C53.5618 85.2 52.7151 84.9867 51.9685 84.56C51.2351 84.12 50.6551 83.4867 50.2285 82.66C49.8018 81.82 49.5885 80.8067 49.5885 79.62C49.5885 77.8467 50.0351 76.48 50.9285 75.52C51.8218 74.56 53.0351 74.08 54.5685 74.08C55.5418 74.08 56.3951 74.3 57.1285 74.74C57.8751 75.1667 58.4551 75.7933 58.8685 76.62C59.2951 77.4333 59.5085 78.4333 59.5085 79.62ZM51.4085 79.62C51.4085 80.8867 51.6551 81.8933 52.1485 82.64C52.6551 83.3733 53.4551 83.74 54.5485 83.74C55.6285 83.74 56.4218 83.3733 56.9285 82.64C57.4351 81.8933 57.6885 80.8867 57.6885 79.62C57.6885 78.3533 57.4351 77.36 56.9285 76.64C56.4218 75.92 55.6218 75.56 54.5285 75.56C53.4351 75.56 52.6418 75.92 52.1485 76.64C51.6551 77.36 51.4085 78.3533 51.4085 79.62Z" fill="#163A24"/>
<path d="M67.4579 74.08C68.7379 74.08 69.7045 74.3933 70.3579 75.02C71.0112 75.6333 71.3379 76.6333 71.3379 78.02V85H69.5979V78.14C69.5979 76.42 68.7978 75.56 67.1978 75.56C66.0112 75.56 65.1912 75.8933 64.7379 76.56C64.2845 77.2267 64.0578 78.1867 64.0578 79.44V85H62.2979V74.28H63.7178L63.9779 75.74H64.0779C64.4245 75.18 64.9045 74.7667 65.5179 74.5C66.1312 74.22 66.7779 74.08 67.4579 74.08Z" fill="#163A24"/>
<path d="M78.2411 83.76C78.5078 83.76 78.7811 83.74 79.0611 83.7C79.3411 83.6467 79.5678 83.5933 79.7411 83.54V84.88C79.5545 84.9733 79.2878 85.0467 78.9411 85.1C78.5945 85.1667 78.2611 85.2 77.9411 85.2C77.3811 85.2 76.8611 85.1067 76.3811 84.92C75.9145 84.72 75.5345 84.38 75.2411 83.9C74.9478 83.42 74.8011 82.7467 74.8011 81.88V75.64H73.2811V74.8L74.8211 74.1L75.5211 71.82H76.5611V74.28H79.6611V75.64H76.5611V81.84C76.5611 82.4933 76.7145 82.98 77.0211 83.3C77.3411 83.6067 77.7478 83.76 78.2411 83.76Z" fill="#163A24"/>
<path d="M83.6477 74.26C83.6477 74.7933 83.6144 75.2933 83.5477 75.76H83.6677C84.0144 75.2133 84.481 74.8 85.0677 74.52C85.6677 74.24 86.3144 74.1 87.0077 74.1C88.3144 74.1 89.2944 74.4133 89.9477 75.04C90.601 75.6533 90.9277 76.6467 90.9277 78.02V85H89.1877V78.14C89.1877 76.42 88.3877 75.56 86.7877 75.56C85.5877 75.56 84.761 75.9 84.3077 76.58C83.8677 77.2467 83.6477 78.2067 83.6477 79.46V85H81.8877V69.8H83.6477V74.26Z" fill="#163A24"/>
<path d="M96.011 85H94.251V69.8H96.011V85Z" fill="#163A24"/>
<path d="M97.7272 74.28H99.6072L101.927 80.38C102.127 80.9133 102.307 81.4267 102.467 81.92C102.627 82.4 102.747 82.86 102.827 83.3H102.907C102.987 82.9667 103.114 82.5333 103.287 82C103.461 81.4533 103.641 80.9067 103.827 80.36L106.007 74.28H107.907L103.287 86.48C102.914 87.4933 102.427 88.3 101.827 88.9C101.241 89.5 100.427 89.8 99.3872 89.8C99.0672 89.8 98.7872 89.78 98.5472 89.74C98.3072 89.7133 98.1006 89.68 97.9272 89.64V88.24C98.0739 88.2667 98.2472 88.2933 98.4472 88.32C98.6606 88.3467 98.8806 88.36 99.1072 88.36C99.7206 88.36 100.214 88.1867 100.587 87.84C100.974 87.4933 101.274 87.0333 101.487 86.46L102.047 85.04L97.7272 74.28Z" fill="#163A24"/>
<path d="M119.898 74.08C121.218 74.08 122.278 74.54 123.078 75.46C123.891 76.38 124.298 77.7667 124.298 79.62C124.298 81.4467 123.891 82.8333 123.078 83.78C122.278 84.7267 121.211 85.2 119.878 85.2C119.051 85.2 118.365 85.0467 117.818 84.74C117.285 84.42 116.865 84.0533 116.558 83.64H116.438C116.465 83.8667 116.491 84.1533 116.518 84.5C116.545 84.8467 116.558 85.1467 116.558 85.4V89.8H114.798V74.28H116.238L116.478 75.74H116.558C116.878 75.2733 117.298 74.88 117.818 74.56C118.338 74.24 119.031 74.08 119.898 74.08ZM119.578 75.56C118.485 75.56 117.711 75.8667 117.258 76.48C116.818 77.0933 116.585 78.0267 116.558 79.28V79.62C116.558 80.94 116.771 81.96 117.198 82.68C117.638 83.3867 118.445 83.74 119.618 83.74C120.271 83.74 120.805 83.56 121.218 83.2C121.645 82.84 121.958 82.3533 122.158 81.74C122.371 81.1133 122.478 80.4 122.478 79.6C122.478 78.3733 122.238 77.3933 121.758 76.66C121.291 75.9267 120.565 75.56 119.578 75.56Z" fill="#163A24"/>
<path d="M128.863 85H127.103V69.8H128.863V85Z" fill="#163A24"/>
<path d="M136.319 74.1C137.625 74.1 138.592 74.3867 139.219 74.96C139.845 75.5333 140.159 76.4467 140.159 77.7V85H138.879L138.539 83.48H138.459C137.992 84.0667 137.499 84.5 136.979 84.78C136.472 85.06 135.765 85.2 134.859 85.2C133.885 85.2 133.079 84.9467 132.439 84.44C131.799 83.92 131.479 83.1133 131.479 82.02C131.479 80.9533 131.899 80.1333 132.739 79.56C133.579 78.9733 134.872 78.6533 136.619 78.6L138.439 78.54V77.9C138.439 77.0067 138.245 76.3867 137.859 76.04C137.472 75.6933 136.925 75.52 136.219 75.52C135.659 75.52 135.125 75.6067 134.619 75.78C134.112 75.94 133.639 76.1267 133.199 76.34L132.659 75.02C133.125 74.7667 133.679 74.5533 134.319 74.38C134.959 74.1933 135.625 74.1 136.319 74.1ZM136.839 79.82C135.505 79.8733 134.579 80.0867 134.059 80.46C133.552 80.8333 133.299 81.36 133.299 82.04C133.299 82.64 133.479 83.08 133.839 83.36C134.212 83.64 134.685 83.78 135.259 83.78C136.165 83.78 136.919 83.5333 137.519 83.04C138.119 82.5333 138.419 81.76 138.419 80.72V79.76L136.839 79.82Z" fill="#163A24"/>
<path d="M148.63 74.08C149.91 74.08 150.876 74.3933 151.53 75.02C152.183 75.6333 152.51 76.6333 152.51 78.02V85H150.77V78.14C150.77 76.42 149.97 75.56 148.37 75.56C147.183 75.56 146.363 75.8933 145.91 76.56C145.456 77.2267 145.23 78.1867 145.23 79.44V85H143.47V74.28H144.89L145.15 75.74H145.25C145.596 75.18 146.076 74.7667 146.69 74.5C147.303 74.22 147.95 74.08 148.63 74.08Z" fill="#163A24"/>
<path d="M162.813 82.04C162.813 83.08 162.426 83.8667 161.653 84.4C160.88 84.9334 159.84 85.2 158.533 85.2C157.786 85.2 157.14 85.14 156.593 85.02C156.06 84.9 155.586 84.7333 155.173 84.52V82.92C155.6 83.1333 156.113 83.3333 156.713 83.52C157.326 83.6933 157.946 83.78 158.573 83.78C159.466 83.78 160.113 83.64 160.513 83.36C160.913 83.0667 161.113 82.68 161.113 82.2C161.113 81.9333 161.04 81.6933 160.893 81.48C160.746 81.2667 160.48 81.0533 160.093 80.84C159.72 80.6267 159.18 80.3867 158.473 80.12C157.78 79.8533 157.186 79.5867 156.693 79.32C156.2 79.0533 155.82 78.7333 155.553 78.36C155.286 77.9867 155.153 77.5067 155.153 76.92C155.153 76.0133 155.52 75.3133 156.253 74.82C157 74.3267 157.973 74.08 159.173 74.08C159.826 74.08 160.433 74.1467 160.993 74.28C161.566 74.4 162.1 74.5733 162.593 74.8L161.993 76.2C161.54 76.0133 161.066 75.8533 160.573 75.72C160.08 75.5867 159.573 75.52 159.053 75.52C158.333 75.52 157.78 75.64 157.393 75.88C157.02 76.1067 156.833 76.42 156.833 76.82C156.833 77.1133 156.92 77.3667 157.093 77.58C157.266 77.78 157.553 77.98 157.953 78.18C158.366 78.3667 158.913 78.5933 159.593 78.86C160.273 79.1133 160.853 79.3733 161.333 79.64C161.813 79.9067 162.18 80.2333 162.433 80.62C162.686 80.9933 162.813 81.4667 162.813 82.04Z" fill="#163A24"/>
<path d="M177.579 82.04C177.579 83.08 177.192 83.8667 176.419 84.4C175.645 84.9334 174.605 85.2 173.299 85.2C172.552 85.2 171.905 85.14 171.359 85.02C170.825 84.9 170.352 84.7333 169.939 84.52V82.92C170.365 83.1333 170.879 83.3333 171.479 83.52C172.092 83.6933 172.712 83.78 173.339 83.78C174.232 83.78 174.879 83.64 175.279 83.36C175.679 83.0667 175.879 82.68 175.879 82.2C175.879 81.9333 175.805 81.6933 175.659 81.48C175.512 81.2667 175.245 81.0533 174.859 80.84C174.485 80.6267 173.945 80.3867 173.239 80.12C172.545 79.8533 171.952 79.5867 171.459 79.32C170.965 79.0533 170.585 78.7333 170.319 78.36C170.052 77.9867 169.919 77.5067 169.919 76.92C169.919 76.0133 170.285 75.3133 171.019 74.82C171.765 74.3267 172.739 74.08 173.939 74.08C174.592 74.08 175.199 74.1467 175.759 74.28C176.332 74.4 176.865 74.5733 177.359 74.8L176.759 76.2C176.305 76.0133 175.832 75.8533 175.339 75.72C174.845 75.5867 174.339 75.52 173.819 75.52C173.099 75.52 172.545 75.64 172.159 75.88C171.785 76.1067 171.599 76.42 171.599 76.82C171.599 77.1133 171.685 77.3667 171.859 77.58C172.032 77.78 172.319 77.98 172.719 78.18C173.132 78.3667 173.679 78.5933 174.359 78.86C175.039 79.1133 175.619 79.3733 176.099 79.64C176.579 79.9067 176.945 80.2333 177.199 80.62C177.452 80.9933 177.579 81.4667 177.579 82.04Z" fill="#163A24"/>
<path d="M183.749 83.76C184.016 83.76 184.289 83.74 184.569 83.7C184.849 83.6467 185.076 83.5933 185.249 83.54V84.88C185.062 84.9733 184.796 85.0467 184.449 85.1C184.102 85.1667 183.769 85.2 183.449 85.2C182.889 85.2 182.369 85.1067 181.889 84.92C181.422 84.72 181.042 84.38 180.749 83.9C180.456 83.42 180.309 82.7467 180.309 81.88V75.64H178.789V74.8L180.329 74.1L181.029 71.82H182.069V74.28H185.169V75.64H182.069V81.84C182.069 82.4933 182.222 82.98 182.529 83.3C182.849 83.6067 183.256 83.76 183.749 83.76Z" fill="#163A24"/>
<path d="M191.456 74.1C192.762 74.1 193.729 74.3867 194.356 74.96C194.982 75.5333 195.296 76.4467 195.296 77.7V85H194.016L193.676 83.48H193.596C193.129 84.0667 192.636 84.5 192.116 84.78C191.609 85.06 190.902 85.2 189.996 85.2C189.022 85.2 188.216 84.9467 187.576 84.44C186.936 83.92 186.616 83.1133 186.616 82.02C186.616 80.9533 187.036 80.1333 187.876 79.56C188.716 78.9733 190.009 78.6533 191.756 78.6L193.576 78.54V77.9C193.576 77.0067 193.382 76.3867 192.996 76.04C192.609 75.6933 192.062 75.52 191.356 75.52C190.796 75.52 190.262 75.6067 189.756 75.78C189.249 75.94 188.776 76.1267 188.336 76.34L187.796 75.02C188.262 74.7667 188.816 74.5533 189.456 74.38C190.096 74.1933 190.762 74.1 191.456 74.1ZM191.976 79.82C190.642 79.8733 189.716 80.0867 189.196 80.46C188.689 80.8333 188.436 81.36 188.436 82.04C188.436 82.64 188.616 83.08 188.976 83.36C189.349 83.64 189.822 83.78 190.396 83.78C191.302 83.78 192.056 83.5333 192.656 83.04C193.256 82.5333 193.556 81.76 193.556 80.72V79.76L191.976 79.82Z" fill="#163A24"/>
<path d="M203.606 74.08C203.806 74.08 204.02 74.0933 204.246 74.12C204.486 74.1333 204.693 74.16 204.866 74.2L204.646 75.82C204.473 75.78 204.28 75.7467 204.066 75.72C203.866 75.6933 203.673 75.68 203.486 75.68C202.94 75.68 202.426 75.8333 201.946 76.14C201.466 76.4333 201.08 76.8533 200.786 77.4C200.506 77.9333 200.366 78.56 200.366 79.28V85H198.606V74.28H200.046L200.246 76.24H200.326C200.673 75.6533 201.12 75.1467 201.666 74.72C202.213 74.2933 202.86 74.08 203.606 74.08Z" fill="#163A24"/>
<path d="M210.448 83.76C210.715 83.76 210.988 83.74 211.268 83.7C211.548 83.6467 211.775 83.5933 211.948 83.54V84.88C211.761 84.9733 211.495 85.0467 211.148 85.1C210.801 85.1667 210.468 85.2 210.148 85.2C209.588 85.2 209.068 85.1067 208.588 84.92C208.121 84.72 207.741 84.38 207.448 83.9C207.155 83.42 207.008 82.7467 207.008 81.88V75.64H205.488V74.8L207.028 74.1L207.728 71.82H208.768V74.28H211.868V75.64H208.768V81.84C208.768 82.4933 208.921 82.98 209.228 83.3C209.548 83.6067 209.955 83.76 210.448 83.76Z" fill="#163A24"/>
<path d="M214.995 70.26C215.261 70.26 215.495 70.3533 215.695 70.54C215.908 70.7133 216.015 70.9933 216.015 71.38C216.015 71.7533 215.908 72.0333 215.695 72.22C215.495 72.4067 215.261 72.5 214.995 72.5C214.701 72.5 214.455 72.4067 214.255 72.22C214.055 72.0333 213.955 71.7533 213.955 71.38C213.955 70.9933 214.055 70.7133 214.255 70.54C214.455 70.3533 214.701 70.26 214.995 70.26ZM215.855 74.28V85H214.095V74.28H215.855Z" fill="#163A24"/>
<path d="M224.411 74.08C225.691 74.08 226.658 74.3933 227.311 75.02C227.964 75.6333 228.291 76.6333 228.291 78.02V85H226.551V78.14C226.551 76.42 225.751 75.56 224.151 75.56C222.964 75.56 222.144 75.8933 221.691 76.56C221.238 77.2267 221.011 78.1867 221.011 79.44V85H219.251V74.28H220.671L220.931 75.74H221.031C221.378 75.18 221.858 74.7667 222.471 74.5C223.084 74.22 223.731 74.08 224.411 74.08Z" fill="#163A24"/>
<path d="M235.414 74.08C236.121 74.08 236.754 74.2133 237.314 74.48C237.888 74.7467 238.374 75.1533 238.774 75.7H238.874L239.114 74.28H240.514V85.18C240.514 86.7133 240.121 87.8667 239.334 88.64C238.561 89.4133 237.354 89.8 235.714 89.8C234.141 89.8 232.854 89.5733 231.854 89.12V87.5C232.908 88.06 234.228 88.34 235.814 88.34C236.734 88.34 237.454 88.0667 237.974 87.52C238.508 86.9867 238.774 86.2533 238.774 85.32V84.9C238.774 84.74 238.781 84.5133 238.794 84.22C238.808 83.9133 238.821 83.7 238.834 83.58H238.754C238.034 84.66 236.928 85.2 235.434 85.2C234.048 85.2 232.961 84.7133 232.174 83.74C231.401 82.7667 231.014 81.4067 231.014 79.66C231.014 77.9533 231.401 76.6 232.174 75.6C232.961 74.5867 234.041 74.08 235.414 74.08ZM235.654 75.56C234.761 75.56 234.068 75.92 233.574 76.64C233.081 77.3467 232.834 78.36 232.834 79.68C232.834 81 233.074 82.0133 233.554 82.72C234.048 83.4133 234.761 83.76 235.694 83.76C236.774 83.76 237.561 83.4734 238.054 82.9C238.548 82.3134 238.794 81.3733 238.794 80.08V79.66C238.794 78.1933 238.541 77.1467 238.034 76.52C237.528 75.88 236.734 75.56 235.654 75.56Z" fill="#163A24"/>
<path d="M253.174 74.1C254.481 74.1 255.448 74.3867 256.074 74.96C256.701 75.5333 257.014 76.4467 257.014 77.7V85H255.734L255.394 83.48H255.314C254.848 84.0667 254.354 84.5 253.834 84.78C253.328 85.06 252.621 85.2 251.714 85.2C250.741 85.2 249.934 84.9467 249.294 84.44C248.654 83.92 248.334 83.1133 248.334 82.02C248.334 80.9533 248.754 80.1333 249.594 79.56C250.434 78.9733 251.728 78.6533 253.474 78.6L255.294 78.54V77.9C255.294 77.0067 255.101 76.3867 254.714 76.04C254.328 75.6933 253.781 75.52 253.074 75.52C252.514 75.52 251.981 75.6067 251.474 75.78C250.968 75.94 250.494 76.1267 250.054 76.34L249.514 75.02C249.981 74.7667 250.534 74.5533 251.174 74.38C251.814 74.1933 252.481 74.1 253.174 74.1ZM253.694 79.82C252.361 79.8733 251.434 80.0867 250.914 80.46C250.408 80.8333 250.154 81.36 250.154 82.04C250.154 82.64 250.334 83.08 250.694 83.36C251.068 83.64 251.541 83.78 252.114 83.78C253.021 83.78 253.774 83.5333 254.374 83.04C254.974 82.5333 255.274 81.76 255.274 80.72V79.76L253.694 79.82Z" fill="#163A24"/>
<path d="M263.905 83.76C264.172 83.76 264.445 83.74 264.725 83.7C265.005 83.6467 265.232 83.5933 265.405 83.54V84.88C265.219 84.9733 264.952 85.0467 264.605 85.1C264.259 85.1667 263.925 85.2 263.605 85.2C263.045 85.2 262.525 85.1067 262.045 84.92C261.579 84.72 261.199 84.38 260.905 83.9C260.612 83.42 260.465 82.7467 260.465 81.88V75.64H258.945V74.8L260.485 74.1L261.185 71.82H262.225V74.28H265.325V75.64H262.225V81.84C262.225 82.4933 262.379 82.98 262.685 83.3C263.005 83.6067 263.412 83.76 263.905 83.76Z" fill="#163A24"/>
<path d="M267.292 75.36C267.292 74.8533 267.412 74.5 267.652 74.3C267.892 74.1 268.178 74 268.512 74C268.858 74 269.152 74.1 269.392 74.3C269.645 74.5 269.772 74.8533 269.772 75.36C269.772 75.84 269.645 76.1867 269.392 76.4C269.152 76.6133 268.858 76.72 268.512 76.72C268.178 76.72 267.892 76.6133 267.652 76.4C267.412 76.1867 267.292 75.84 267.292 75.36ZM267.292 83.92C267.292 83.4267 267.412 83.08 267.652 82.88C267.892 82.68 268.178 82.58 268.512 82.58C268.858 82.58 269.152 82.68 269.392 82.88C269.645 83.08 269.772 83.4267 269.772 83.92C269.772 84.4 269.645 84.7467 269.392 84.96C269.152 85.1733 268.858 85.28 268.512 85.28C268.178 85.28 267.892 85.1733 267.652 84.96C267.412 84.7467 267.292 84.4 267.292 83.92Z" fill="#163A24"/>
<path d="M176 8.43187C88 7.62097 -3.0999 24.8018 2.5001 114.002C5.66685 140.835 42.4004 194.002 164 192.002C223.5 192.002 303.8 155.602 301 84.0019C297.834 55.0019 305.7 -4.39481 138.5 2.00207C132.5 2.23164 84.9999 6.00179 70 12.0019C32 22.502 -27.5 67.5019 23.5003 129.002C38.4273 147.002 73.4004 180.902 185 176.502C227.834 174.835 361 116.502 280 41.0019C250.5 13.505 176 -10 36.5 28.1295" stroke="#FBC8B8" stroke-width="3"/>
</svg>
